#!OML:ASF Y:\EmotionMaleHayes\Project 1\Capture day 1\Session 1\Male1.ASF
:FULLY-SPECIFIED
:DEGREES
571
root 12.1523 17.0395 1.00717 333.15 93.9997 336.071
lowerback 5.65678 -0.671204 -4.07896
upperback 0.233994 -1.11594 1.10136
thorax -2.83184 -0.49272 3.51933
lowerneck -23.9334 2.60434 3.50267
upperneck 18.4617 2.76078 -1.61864
head 9.87112 1.33965 -0.720701
rclavicle -6.81381e-015 -2.38542e-015
rhumerus -40.6592 4.14656 -84.4455
rradius 32.5339
rwrist 1.11567
rhand -10.4205 -31.1486
rfingers 7.12502
rthumb 15.5787 -60.5411
lclavicle -6.81381e-015 -2.38542e-015
lhumerus -43.7974 -14.7471 97.2805
lradius 27.2534
lwrist -6.94956
lhand -10.5473 -22.2703
lfingers 7.12502
lthumb 15.4566 7.13172
rfemur -2.72963 -10.3927 16.9745
rtibia 9.96926
rfoot -7.09148 5.3751
rtoes 27.8222
lfemur 15.6596 3.25913 -18.1662
ltibia 42.4811
lfoot 8.06453 6.76515
ltoes 13.5907
572
root 12.2649 17.0313 1.00776 339.576 93.7543 342.593
lowerback 5.75014 -0.560948 -3.35771
upperback 0.307053 -0.921224 1.16582
thorax -2.83604 -0.405053 3.16495
lowerneck -23.8845 2.40994 3.31226
upperneck 18.4779 2.55538 -1.58908
head 9.85943 1.23517 -0.711243
rclavicle -6.61658e-015 1.19271e-015
rhumerus -40.0805 4.27642 -84.5048
rradius 32.9022
rwrist 0.782738
rhand -10.4137 -31.5225
rfingers 7.12502
rthumb 15.5853 -60.9146
lclavicle -6.61658e-015 1.19271e-015
lhumerus -44.01 -14.4395 96.793
lradius 27.0019
lwrist -7.40779
lhand -10.1579 -22.2189
lfingers 7.12502
lthumb 15.8316 7.15377
rfemur -2.23767 -10.8091 17.5134
rtibia 10.0661
rfoot -7.4114 6.01841
rtoes 27.6437
lfemur 14.6212 3.81505 -17.3046
ltibia 44.4337
lfoot 7.32372 6.71032
ltoes 10.6204
573
root 12.3852 17.0264 1.01539 346.521 93.7985 349.806
lowerback 5.42902 -0.57902 -3.02028
upperback 0.798996 -0.898292 1.38716
thorax -2.15152 -0.414116 3.19109
lowerneck -24.0766 2.37432 3.14823
upperneck 18.215 2.56022 -1.6349
head 9.79753 1.21667 -0.699213
rclavicle 7.19352e-015 3.57812e-015
rhumerus -38.8869 4.89766 -84.5288
rradius 33.1148
rwrist 0.31718
rhand -10.5474 -32.034
rfingers 7.12502
rthumb 15.4565 -61.436
lclavicle 7.19352e-015 3.57812e-015
lhumerus -43.4285 -13.8232 96.1762
lradius 26.5441
lwrist -8.01851
lhand -10.0097 -22.0277
lfingers 7.12502
lthumb 15.9743 7.33364
rfemur -1.4599 -10.993 17.9683
rtibia 10.0473
rfoot -7.91068 6.24238
rtoes 27.0717
lfemur 13.6905 4.20943 -16.4472
ltibia 46.3935
lfoot 6.55812 6.6928
ltoes 7.21685
574
root 12.5026 17.0201 1.02781 356.28 93.8051 359.884
lowerback 5.89518 -0.496585 -2.20317
upperback 0.825767 -0.743207 1.45917
thorax -2.40625 -0.337573 2.80028
lowerneck -23.8868 2.20504 3.03353
upperneck 18.0536 2.34649 -1.52909
head 9.69853 1.12327 -0.677407
rclavicle -6.40149e-015 -1.63003e-014
rhumerus -38.3536 5.01988 -84.6784
rradius 33.1265
rwrist 0.259617
rhand -10.7121 -31.9983
rfingers 7.12502
rthumb 15.2979 -61.4125
lclavicle -6.40149e-015 -1.63003e-014
lhumerus -43.6068 -13.3629 95.4848
lradius 26.0536
lwrist -8.84846
lhand -10.324 -22.0989
lfingers 7.12502
lthumb 15.6716 7.28637
rfemur -0.58819 -10.9689 18.7239
rtibia 9.84569
rfoot -8.32273 6.31178
rtoes 26.6757
lfemur 12.7914 4.57447 -15.3287
ltibia 48.2656
lfoot 5.45329 6.97632
ltoes 7.55971
575
root 12.6188 17.0143 1.03597 366.324 93.9601 370.175
lowerback 6.12387 -0.409431 -1.33258
upperback 0.934682 -0.564971 1.58398
thorax -2.44069 -0.254129 2.42651
lowerneck -23.8773 2.04258 2.94437
upperneck 17.9553 2.16511 -1.58306
head 9.65707 1.026 -0.709553
rclavicle -3.67441e-015 2.38542e-015
rhumerus -37.6395 4.88015 -84.5638
rradius 33.1765
rwrist 0.666878
rhand -10.3826 -32.0079
rfingers 7.12502
rthumb 15.6152 -61.3977
lclavicle -3.67441e-015 2.38542e-015
lhumerus -43.6151 -12.8238 94.7944
lradius 25.5978
lwrist -9.51838
lhand -10.6286 -22.376
lfingers 7.12502
lthumb 15.3783 7.03207
rfemur 0.294881 -11.109 19.4619
rtibia 9.62896
rfoot -8.652 6.59909
rtoes 27.4308
lfemur 11.82 4.88055 -14.2354
ltibia 49.8977
lfoot 4.18677 7.35515
ltoes 9.7805
576
root 12.731 17.0097 1.04556 374.445 94.201 378.495
lowerback 6.28865 -0.3425 -0.645062
upperback 1.03865 -0.421889 1.72467
thorax -2.43713 -0.186456 2.17385
lowerneck -24.0098 1.99342 3.10406
upperneck 18.0911 2.09604 -1.82249
head 9.73147 0.976054 -0.829562
rclavicle -2.46617e-015 2.38542e-015
rhumerus -36.9362 4.94837 -84.4845
rradius 33.3522
rwrist 1.04891
rhand -10.049 -32.3193
rfingers 7.12502
rthumb 15.9364 -61.6836
lclavicle -2.46617e-015 2.38542e-015
lhumerus -43.6356 -12.2292 94.1102
lradius 25.2738
lwrist -9.91862
lhand -10.9315 -22.4885
lfingers 7.12502
lthumb 15.0865 6.94177
rfemur 1.05604 -11.219 20.124
rtibia 9.50313
rfoot -8.92118 6.81834
rtoes 28.5629
lfemur 10.714 5.18237 -13.2763
ltibia 51.4521
lfoot 3.22615 7.56946
ltoes 11.8413
577
root 12.8388 17.0084 1.06011 383.363 94.504 387.677
lowerback 6.62182 -0.231607 0.127794
upperback 1.09477 -0.208733 1.87064
thorax -2.57688 -0.0828616 1.87389
lowerneck -23.9838 1.86795 3.1529
upperneck 18.1645 1.92165 -1.87566
head 9.74947 0.893119 -0.882933
rclavicle -3.26442e-015 3.97569e-016
rhumerus -36.3393 5.19273 -84.5737
rradius 33.4608
rwrist 0.976143
rhand -10.4004 -32.2161
rfingers 7.12502
rthumb 15.5981 -61.6071
lclavicle -3.26442e-015 3.97569e-016
lhumerus -43.6713 -11.8138 93.4365
lradius 24.8191
lwrist -10.4082
lhand -11.3041 -22.4887
lfingers 7.12502
lthumb 14.7276 6.96816
rfemur 1.71121 -11.1415 21.0562
rtibia 9.17077
rfoot -9.00598 6.64814
rtoes 27.8938
lfemur 9.56125 5.52649 -12.1261
ltibia 53.0395
lfoot 2.68762 7.66191
ltoes 14.9999
578
root 12.9484 17.009 1.06962 388.54 94.8745 393.063
lowerback 6.87412 -0.101308 0.814233
upperback 1.12792 0.0242228 1.92808
thorax -2.69092 0.0295906 1.52748
lowerneck -23.6574 1.57466 2.95797
upperneck 17.9249 1.55547 -1.71349
head 9.59429 0.730393 -0.85012
rclavicle -3.24578e-015 -3.18055e-015
rhumerus -35.8234 5.302 -84.6397
rradius 33.6431
rwrist 0.690024
rhand -10.7308 -32.3245
rfingers 7.12502
rthumb 15.2798 -61.7401
lclavicle -3.24578e-015 -3.18055e-015
lhumerus -43.5634 -11.3259 92.6478
lradius 24.1983
lwrist -11.1067
lhand -11.702 -22.5899
lfingers 7.12502
lthumb 14.3441 6.89452
rfemur 2.3818 -11.2975 21.6994
rtibia 8.84258
rfoot -9.23338 6.63836
rtoes 26.8892
lfemur 8.35719 5.82717 -11.2743
ltibia 54.384
lfoot 2.60262 7.84333
ltoes 16.2478
579
root 13.0601 17.0085 1.07855 391.374 95.2114 396.014
lowerback 6.92041 0.0162325 1.29763
upperback 1.18347 0.221056 1.97108
thorax -2.66206 0.125055 1.28216
lowerneck -23.2229 1.2812 2.8121
upperneck 17.5684 1.19154 -1.62809
head 9.38211 0.562061 -0.850586
rclavicle -1.14332e-014 -3.57812e-015
rhumerus -35.3352 5.29389 -84.5953
rradius 33.9832
rwrist 0.665492
rhand -10.6824 -32.8591
rfingers 7.12502
rthumb 15.3264 -62.2712
lclavicle -1.14332e-014 -3.57812e-015
lhumerus -43.4364 -10.5409 91.7364
lradius 23.7379
lwrist -11.8543
lhand -12.0388 -22.677
lfingers 7.12502
lthumb 14.0196 6.83017
rfemur 3.09569 -11.2731 22.1598
rtibia 8.92935
rfoot -9.93657 6.69154
rtoes 28.0374
lfemur 7.07169 6.08094 -10.6778
ltibia 55.5938
lfoot 1.47845 7.39363
ltoes 13.6516
